<svg width="561" height="474" viewBox="0 0 561 474" fill="none" xmlns="http://www.w3.org/2000/svg">
<g filter="url(#filter0_d_190_23)">
<g style="mix-blend-mode:overlay">
<g style="mix-blend-mode:overlay">
<path d="M341.761 284.175L332.912 275.374C339.683 268.658 345.079 260.698 348.8 251.937L360.327 256.788C355.981 267.028 349.676 276.329 341.761 284.175Z" fill="#5F5F7E"/>
</g>
</g>
<g style="mix-blend-mode:overlay">
<g style="mix-blend-mode:overlay">
<path d="M280.5 309.42C266.256 309.406 252.235 305.902 239.676 299.216C227.118 292.531 216.409 282.87 208.496 271.089C200.584 259.308 195.712 245.769 194.311 231.669C192.91 217.57 195.023 203.344 200.464 190.25L212.028 195.019C207.359 206.222 205.54 218.397 206.734 230.466C207.929 242.535 212.098 254.125 218.874 264.207C225.65 274.289 234.822 282.552 245.577 288.264C256.332 293.976 268.338 296.959 280.53 296.95L280.5 309.42Z" fill="#5F5F7E"/>
</g>
</g>
<g style="mix-blend-mode:overlay">
<path d="M355.547 148.919C335.774 129.29 308.979 118.265 281.042 118.265C253.106 118.265 226.311 129.29 206.538 148.919" stroke="#5F5F7E" stroke-width="21.93" stroke-miterlimit="10"/>
</g>
<g style="mix-blend-mode:overlay">
<path d="M378.353 263.112C383.561 250.631 386.291 237.266 386.394 223.753" stroke="#5F5F7E" stroke-width="21.93" stroke-miterlimit="10"/>
</g>
<g style="mix-blend-mode:overlay">
<path d="M175.675 223.017C175.669 240.251 179.939 257.221 188.105 272.421C196.272 287.621 208.084 300.582 222.493 310.154C236.902 319.725 253.463 325.612 270.707 327.292C287.951 328.972 305.346 326.393 321.348 319.784" stroke="#5F5F7E" stroke-width="21.93" stroke-miterlimit="10"/>
</g>
<g style="mix-blend-mode:overlay">
<path d="M387.995 223.24C387.988 202.094 381.677 181.425 369.861 163.846C358.045 146.268 341.253 132.569 321.611 124.482C301.968 116.395 280.355 114.283 259.506 118.412C238.656 122.542 219.506 132.729 204.476 147.684C189.447 162.639 179.212 181.691 175.068 202.431C170.923 223.171 173.054 244.668 181.191 264.204C189.328 283.739 203.106 300.436 220.783 312.183C238.46 323.931 259.241 330.201 280.5 330.201C294.62 330.201 308.601 327.434 321.645 322.058C334.69 316.682 346.541 308.803 356.524 298.87C366.506 288.938 374.423 277.146 379.823 264.169C385.223 251.192 388 237.284 387.995 223.24V223.24Z" stroke="#5F5F7E" stroke-width="22.89" stroke-miterlimit="10" stroke-linecap="round"/>
</g>
<g style="mix-blend-mode:overlay">
<path d="M289.563 349.979C359.945 345.01 412.951 284.229 407.955 214.221C402.959 144.214 341.854 91.4893 271.472 96.4584C201.09 101.427 148.084 162.208 153.079 232.216C158.075 302.224 219.181 354.948 289.563 349.979Z" stroke="#5F5F7E" stroke-width="16.88" stroke-miterlimit="10" stroke-dasharray="142.08 14.56"/>
</g>
<g style="mix-blend-mode:overlay">
<g style="mix-blend-mode:overlay">
<path d="M428.604 223.24C428.604 141.873 362.286 75.9232 280.5 75.9232C198.714 75.9232 132.396 141.888 132.396 223.24C132.396 304.591 198.714 370.557 280.5 370.557C362.286 370.557 428.604 304.614 428.604 223.24Z" stroke="white" stroke-width="14.94" stroke-miterlimit="10" stroke-dasharray="2.48 4.97"/>
</g>
</g>
<g style="mix-blend-mode:overlay">
<g style="mix-blend-mode:overlay">
<path d="M280.5 290.113C317.63 290.113 347.73 260.173 347.73 223.24C347.73 186.307 317.63 156.367 280.5 156.367C243.37 156.367 213.27 186.307 213.27 223.24C213.27 260.173 243.37 290.113 280.5 290.113Z" stroke="white" stroke-width="2.29" stroke-miterlimit="10" stroke-dasharray="1.14 15"/>
</g>
</g>
<g style="mix-blend-mode:overlay">
<g style="mix-blend-mode:overlay">
<path d="M398.063 223.24C398.063 200.112 391.168 177.503 378.25 158.272C365.332 139.042 346.971 124.054 325.489 115.203C304.008 106.352 280.37 104.036 257.565 108.549C234.76 113.061 213.812 124.198 197.37 140.552C180.929 156.906 169.732 177.743 165.196 200.426C160.66 223.11 162.988 246.623 171.886 267.99C180.784 289.358 195.852 307.621 215.185 320.47C234.519 333.32 257.248 340.178 280.5 340.178C295.939 340.178 311.226 337.153 325.489 331.277C339.753 325.4 352.713 316.786 363.63 305.928C374.546 295.069 383.206 282.178 389.114 267.99C395.022 253.803 398.063 238.596 398.063 223.24Z" stroke="white" stroke-width="4" stroke-miterlimit="10" stroke-dasharray="1.99 26.22"/>
</g>
</g>
<g style="mix-blend-mode:overlay">
<path d="M392.505 334.65C454.363 273.121 454.363 173.363 392.506 111.834C330.648 50.3054 230.357 50.3054 168.499 111.834C106.641 173.363 106.641 273.121 168.499 334.65C230.357 396.179 330.648 396.179 392.505 334.65Z" stroke="white" stroke-width="2.35" stroke-miterlimit="10"/>
</g>
<g style="mix-blend-mode:overlay">
<g style="mix-blend-mode:overlay">
<path d="M375.421 55.3285C338.543 34.7364 295.908 26.702 254.013 32.4498" stroke="white" stroke-width="1.72" stroke-miterlimit="10" stroke-linecap="round"/>
</g>
<g style="mix-blend-mode:overlay">
<path d="M374.453 52.4314L372.414 56.1303L376.133 58.1588L378.172 54.4599L374.453 52.4314Z" fill="white"/>
</g>
<g style="mix-blend-mode:overlay">
<path d="M255.958 30.0987L251.751 30.6296L252.284 34.8147L256.492 34.2837L255.958 30.0987Z" fill="white"/>
</g>
</g>
<g style="mix-blend-mode:overlay">
<g style="mix-blend-mode:overlay">
<path d="M473.873 233.016C475.259 206.447 471.083 179.88 461.607 155C452.132 130.12 437.564 107.469 418.828 88.4823" stroke="white" stroke-width="1.72" stroke-miterlimit="10" stroke-linecap="round"/>
</g>
<g style="mix-blend-mode:overlay">
<path d="M471.748 230.713L471.6 234.929L475.838 235.077L475.987 230.861L471.748 230.713Z" fill="white"/>
</g>
<g style="mix-blend-mode:overlay">
<path d="M418.945 85.6007L415.865 88.5009L418.781 91.5645L421.861 88.6643L418.945 85.6007Z" fill="white"/>
</g>
</g>
<g style="mix-blend-mode:overlay">
<g style="mix-blend-mode:overlay">
<path d="M418.828 357.997C436.016 340.588 449.709 320.079 459.175 297.568" stroke="white" stroke-width="1.72" stroke-miterlimit="10" stroke-linecap="round"/>
</g>
<g style="mix-blend-mode:overlay">
<path d="M418.8 354.941L415.877 357.999L418.951 360.905L421.873 357.848L418.8 354.941Z" fill="white"/>
</g>
<g style="mix-blend-mode:overlay">
<path d="M457.99 294.867L456.301 298.736L460.191 300.417L461.88 296.548L457.99 294.867Z" fill="white"/>
</g>
</g>
<g style="mix-blend-mode:overlay">
<g style="mix-blend-mode:overlay">
<path d="M145.022 360.832C164.11 379.472 186.883 393.965 211.898 403.39C236.913 412.815 263.623 416.968 290.336 415.585" stroke="white" stroke-width="1.72" stroke-miterlimit="10" stroke-linecap="round"/>
</g>
<g style="mix-blend-mode:overlay">
<path d="M145.043 357.895L142.128 360.958L145.208 363.858L148.123 360.795L145.043 357.895Z" fill="white"/>
</g>
<g style="mix-blend-mode:overlay">
<path d="M292.309 413.339L288.07 413.488L288.22 417.704L292.458 417.555L292.309 413.339Z" fill="white"/>
</g>
</g>
<g style="mix-blend-mode:overlay">
<g style="mix-blend-mode:overlay">
<path d="M142.172 88.4822C116.382 114.645 98.6349 147.586 91.0149 183.434C83.3948 219.282 86.2187 256.549 99.1549 290.857" stroke="white" stroke-width="1.72" stroke-miterlimit="10" stroke-linecap="round"/>
</g>
<g style="mix-blend-mode:overlay">
<path d="M142.066 85.5856L139.114 88.6146L142.159 91.5509L145.111 88.5219L142.066 85.5856Z" fill="white"/>
</g>
<g style="mix-blend-mode:overlay">
<path d="M100.419 288.044L96.4312 289.479L97.8741 293.446L101.862 292.011L100.419 288.044Z" fill="white"/>
</g>
</g>
<g style="mix-blend-mode:overlay">
<g style="mix-blend-mode:overlay">
<path d="M349.002 195.026C341.462 176.968 327.027 162.622 308.866 155.137C290.704 147.652 270.299 147.64 252.128 155.102L247.334 143.607C268.568 134.895 292.408 134.914 313.629 143.659C334.849 152.404 351.717 169.161 360.536 190.257L349.002 195.026Z" fill="#5F5F7E"/>
</g>
</g>
<g style="mix-blend-mode:overlay">
<g style="mix-blend-mode:overlay">
<path d="M368.921 223.24C368.921 205.845 363.735 188.84 354.019 174.377C344.304 159.913 330.494 148.641 314.337 141.984C298.18 135.327 280.402 133.585 263.25 136.979C246.098 140.372 230.343 148.749 217.977 161.049C205.611 173.349 197.19 189.021 193.778 206.082C190.366 223.142 192.117 240.826 198.81 256.897C205.502 272.968 216.835 286.704 231.376 296.369C245.917 306.033 263.012 311.191 280.5 311.191C303.95 311.189 326.439 301.922 343.021 285.429C359.603 268.935 368.919 246.565 368.921 223.24Z" stroke="white" stroke-width="12.59" stroke-miterlimit="10" stroke-dasharray="4.58 9.17"/>
</g>
</g>
<g style="mix-blend-mode:overlay">
<g style="mix-blend-mode:overlay">
<path d="M451.156 175.511C440.685 138.557 418.384 106.007 387.636 82.7979" stroke="white" stroke-width="1.72" stroke-miterlimit="10" stroke-linecap="round"/>
</g>
<g style="mix-blend-mode:overlay">
<path d="M452.54 172.758L448.469 173.939L449.656 177.989L453.727 176.808L452.54 172.758Z" fill="white"/>
</g>
<g style="mix-blend-mode:overlay">
<path d="M387.308 79.905L384.71 83.2397L388.063 85.8236L390.66 82.4889L387.308 79.905Z" fill="white"/>
</g>
</g>
<g style="mix-blend-mode:overlay">
<g style="mix-blend-mode:overlay">
<path d="M399.432 353.95C417.563 337.666 432.104 317.821 442.137 295.667C452.17 273.513 457.477 249.531 457.724 225.234" stroke="white" stroke-width="1.72" stroke-miterlimit="10" stroke-linecap="round"/>
</g>
<g style="mix-blend-mode:overlay">
<path d="M399.582 350.855L396.479 353.732L399.371 356.818L402.474 353.941L399.582 350.855Z" fill="white"/>
</g>
<g style="mix-blend-mode:overlay">
<path d="M455.617 223.181L455.501 227.398L459.741 227.513L459.856 223.296L455.617 223.181Z" fill="white"/>
</g>
</g>
<g style="mix-blend-mode:overlay">
<g style="mix-blend-mode:overlay">
<path d="M282.512 399.521C304.853 399.295 326.947 394.857 347.625 386.442" stroke="white" stroke-width="1.72" stroke-miterlimit="10" stroke-linecap="round"/>
</g>
<g style="mix-blend-mode:overlay">
<path d="M284.68 397.321L280.441 397.427L280.547 401.644L284.787 401.538L284.68 397.321Z" fill="white"/>
</g>
<g style="mix-blend-mode:overlay">
<path d="M348.726 383.685L344.781 385.232L346.336 389.157L350.282 387.609L348.726 383.685Z" fill="white"/>
</g>
</g>
<g style="mix-blend-mode:overlay">
<g style="mix-blend-mode:overlay">
<path d="M103.284 225.241C103.533 249.538 108.843 273.521 118.877 295.674C128.911 317.828 143.452 337.673 161.583 353.957" stroke="white" stroke-width="1.72" stroke-miterlimit="10" stroke-linecap="round"/>
</g>
<g style="mix-blend-mode:overlay">
<path d="M105.387 223.181L101.147 223.296L101.263 227.513L105.502 227.398L105.387 223.181Z" fill="white"/>
</g>
<g style="mix-blend-mode:overlay">
<path d="M161.429 350.883L158.537 353.969L161.64 356.845L164.532 353.759L161.429 350.883Z" fill="white"/>
</g>
</g>
<g style="mix-blend-mode:overlay">
<g style="mix-blend-mode:overlay">
<path d="M278.488 46.9658C244.831 47.3284 211.974 57.2209 183.764 75.485C155.554 93.7492 133.159 119.629 119.201 150.095" stroke="white" stroke-width="1.72" stroke-miterlimit="10" stroke-linecap="round"/>
</g>
<g style="mix-blend-mode:overlay">
<path d="M280.436 44.845L276.197 44.9746L276.327 49.1912L280.566 49.0617L280.436 44.845Z" fill="white"/>
</g>
<g style="mix-blend-mode:overlay">
<path d="M118.249 147.216L116.45 151.036L120.29 152.826L122.09 149.006L118.249 147.216Z" fill="white"/>
</g>
</g>
<g style="mix-blend-mode:overlay">
<g style="mix-blend-mode:overlay">
<path d="M280.5 146.843V55.9535" stroke="#5F5F7E" stroke-width="1.14" stroke-miterlimit="10"/>
</g>
<g style="mix-blend-mode:overlay">
<path d="M283.32 143.897H277.673V149.514H283.32V143.897Z" fill="#5F5F7E"/>
</g>
<g style="mix-blend-mode:overlay">
<path d="M283.716 56.1098C283.715 55.4773 283.525 54.8595 283.171 54.3344C282.816 53.8092 282.314 53.4003 281.726 53.1593C281.138 52.9183 280.491 52.856 279.868 52.9803C279.245 53.1046 278.672 53.4099 278.223 53.8576C277.774 54.3053 277.468 54.8754 277.345 55.4958C277.221 56.1162 277.286 56.7591 277.529 57.3432C277.773 57.9274 278.185 58.4266 278.714 58.7778C279.243 59.1291 279.864 59.3165 280.5 59.3165C280.923 59.3165 281.342 59.2335 281.733 59.0723C282.123 58.911 282.478 58.6747 282.777 58.3768C283.076 58.079 283.313 57.7254 283.474 57.3364C283.635 56.9474 283.717 56.5305 283.716 56.1098Z" fill="#5F5F7E"/>
</g>
</g>
<g style="mix-blend-mode:overlay">
<g style="mix-blend-mode:overlay">
<path d="M251.104 152.639L203.643 38.6772" stroke="#5F5F7E" stroke-width="1.14" stroke-miterlimit="10"/>
</g>
<g style="mix-blend-mode:overlay">
<path d="M252.586 148.847L247.361 151L249.522 156.19L254.747 154.037L252.586 148.847Z" fill="#5F5F7E"/>
</g>
<g style="mix-blend-mode:overlay">
<path d="M206.68 37.5984C206.352 36.8151 205.726 36.1928 204.938 35.8679C204.15 35.543 203.265 35.5419 202.476 35.8648C201.691 36.1892 201.067 36.8096 200.74 37.5904C200.414 38.3711 200.411 39.2487 200.733 40.0314C200.893 40.423 201.13 40.7792 201.429 41.0794C201.728 41.3797 202.084 41.618 202.476 41.7805C202.869 41.9431 203.289 42.0268 203.714 42.0266C204.139 42.0265 204.56 41.9426 204.952 41.7798C205.738 41.4527 206.362 40.8286 206.686 40.0447C207.01 39.2607 207.008 38.3809 206.68 37.5984Z" fill="#5F5F7E"/>
</g>
</g>
<g style="mix-blend-mode:overlay">
<g style="mix-blend-mode:overlay">
<path d="M210.098 153.212L129.337 72.8801" stroke="#5F5F7E" stroke-width="1.14" stroke-miterlimit="10"/>
</g>
<g style="mix-blend-mode:overlay">
<path d="M209.998 149.138L206.005 153.11L209.998 157.082L213.991 153.11L209.998 149.138Z" fill="#5F5F7E"/>
</g>
<g style="mix-blend-mode:overlay">
<path d="M131.723 70.7298C131.273 70.2833 130.699 69.9795 130.076 69.8568C129.452 69.7341 128.806 69.798 128.219 70.0404C127.632 70.2829 127.13 70.6929 126.777 71.2189C126.424 71.7448 126.235 72.363 126.235 72.9953C126.235 73.6277 126.424 74.2459 126.777 74.7718C127.13 75.2977 127.632 75.7078 128.219 75.9502C128.806 76.1926 129.452 76.2565 130.076 76.1338C130.699 76.0111 131.273 75.7074 131.723 75.2609C132.022 74.9637 132.26 74.6106 132.422 74.2218C132.585 73.833 132.668 73.4162 132.668 72.9953C132.668 72.5744 132.585 72.1576 132.422 71.7688C132.26 71.3801 132.022 71.027 131.723 70.7298Z" fill="#5F5F7E"/>
</g>
</g>
<g style="mix-blend-mode:overlay">
<g style="mix-blend-mode:overlay">
<path d="M209.26 193.896L23.8911 117.521" stroke="#5F5F7E" stroke-width="1.26" stroke-miterlimit="10"/>
</g>
<g style="mix-blend-mode:overlay">
<path d="M207.431 189.774L205.044 195.507L210.807 197.882L213.195 192.149L207.431 189.774Z" fill="#5F5F7E"/>
</g>
<g style="mix-blend-mode:overlay">
<path d="M25.4321 114.322C24.7828 114.054 24.0681 113.984 23.3786 114.12C22.6891 114.256 22.0556 114.593 21.5585 115.087C21.0613 115.581 20.7227 116.211 20.5856 116.897C20.4485 117.583 20.519 118.294 20.7881 118.94C21.0573 119.586 21.5131 120.138 22.0978 120.526C22.6825 120.914 23.3698 121.121 24.0728 121.121C24.7758 121.12 25.4629 120.912 26.047 120.523C26.6312 120.134 27.0862 119.582 27.3544 118.935C27.5343 118.507 27.6273 118.048 27.6279 117.583C27.6286 117.119 27.537 116.66 27.3583 116.231C27.1796 115.802 26.9174 115.413 26.5868 115.085C26.2563 114.758 25.8638 114.498 25.4321 114.322Z" fill="#5F5F7E"/>
</g>
</g>
<g style="mix-blend-mode:overlay">
<g style="mix-blend-mode:overlay">
<path d="M203.695 223.24L65.6443 223.024" stroke="#5F5F7E" stroke-width="1.14" stroke-miterlimit="10"/>
</g>
<g style="mix-blend-mode:overlay">
<path d="M200.735 220.428L200.727 226.046L206.374 226.055L206.383 220.437L200.735 220.428Z" fill="#5F5F7E"/>
</g>
<g style="mix-blend-mode:overlay">
<path d="M65.8239 219.825C65.1887 219.822 64.5669 220.006 64.0369 220.354C63.5068 220.702 63.0923 221.199 62.8455 221.781C62.5987 222.363 62.5307 223.005 62.6501 223.626C62.7695 224.246 63.071 224.818 63.5165 225.268C63.9619 225.718 64.5315 226.027 65.1533 226.156C65.7752 226.285 66.4214 226.228 67.0106 225.992C67.5998 225.756 68.1056 225.352 68.4641 224.83C68.8227 224.309 69.018 223.693 69.0254 223.061C69.0303 222.639 68.9512 222.22 68.7928 221.829C68.6343 221.438 68.3995 221.081 68.1019 220.78C67.8043 220.479 67.4498 220.24 67.0589 220.076C66.6679 219.912 66.2482 219.827 65.8239 219.825Z" fill="#5F5F7E"/>
</g>
</g>
<g style="mix-blend-mode:overlay">
<g style="mix-blend-mode:overlay">
<path d="M209.515 252.473L12.7385 333.564" stroke="#5F5F7E" stroke-width="1.14" stroke-miterlimit="10"/>
</g>
<g style="mix-blend-mode:overlay">
<path d="M210.92 248.843L205.696 250.997L207.86 256.193L213.085 254.039L210.92 248.843Z" fill="#5F5F7E"/>
</g>
<g style="mix-blend-mode:overlay">
<path d="M11.6538 330.543C11.0672 330.786 10.5661 331.197 10.2139 331.723C9.86175 332.25 9.67423 332.868 9.67505 333.5C9.67587 334.132 9.86499 334.75 10.2185 335.276C10.5721 335.801 11.0742 336.21 11.6615 336.452C12.2488 336.694 12.8949 336.757 13.5184 336.634C14.1418 336.511 14.7145 336.207 15.1642 335.76C15.614 335.313 15.9206 334.744 16.0453 334.124C16.17 333.504 16.1073 332.861 15.8651 332.277C15.7037 331.887 15.4666 331.533 15.1673 331.235C14.8681 330.937 14.5127 330.701 14.1214 330.54C13.7301 330.379 13.3107 330.296 12.8873 330.297C12.4638 330.297 12.0447 330.381 11.6538 330.543Z" fill="#5F5F7E"/>
</g>
</g>
<g style="mix-blend-mode:overlay">
<g style="mix-blend-mode:overlay">
<path d="M226.262 277.189L124.908 378.004" stroke="#5F5F7E" stroke-width="1.07" stroke-miterlimit="10"/>
</g>
<g style="mix-blend-mode:overlay">
<path d="M226.167 273.569L222.428 277.289L226.167 281.009L229.907 277.289L226.167 273.569Z" fill="#5F5F7E"/>
</g>
<g style="mix-blend-mode:overlay">
<path d="M122.889 375.78C122.474 376.197 122.192 376.728 122.08 377.304C121.967 377.88 122.029 378.477 122.256 379.019C122.484 379.56 122.867 380.023 123.358 380.349C123.85 380.674 124.427 380.848 125.017 380.848C125.607 380.848 126.184 380.674 126.676 380.349C127.167 380.023 127.55 379.56 127.778 379.019C128.005 378.477 128.067 377.88 127.954 377.304C127.841 376.728 127.56 376.197 127.145 375.78C126.867 375.5 126.535 375.277 126.17 375.125C125.805 374.974 125.413 374.896 125.017 374.896C124.621 374.896 124.229 374.974 123.864 375.125C123.499 375.277 123.167 375.5 122.889 375.78Z" fill="#5F5F7E"/>
</g>
</g>
<g style="mix-blend-mode:overlay">
<g style="mix-blend-mode:overlay">
<path d="M250.842 293.148L211.632 388.599" stroke="#5F5F7E" stroke-width="0.91" stroke-miterlimit="10"/>
</g>
<g style="mix-blend-mode:overlay">
<path d="M249.566 290.34L247.86 294.493L252.035 296.19L253.741 292.037L249.566 290.34Z" fill="#5F5F7E"/>
</g>
<g style="mix-blend-mode:overlay">
<path d="M209.298 387.491C209.105 387.959 209.055 388.474 209.157 388.971C209.258 389.467 209.505 389.922 209.866 390.279C210.228 390.636 210.687 390.878 211.187 390.975C211.687 391.071 212.205 391.018 212.674 390.822C213.144 390.626 213.544 390.296 213.825 389.874C214.106 389.451 214.254 388.955 214.251 388.449C214.249 387.942 214.095 387.448 213.81 387.028C213.524 386.609 213.121 386.283 212.649 386.092C212.018 385.836 211.311 385.84 210.683 386.102C210.054 386.364 209.556 386.864 209.298 387.491Z" fill="#5F5F7E"/>
</g>
</g>
<g style="mix-blend-mode:overlay">
<g style="mix-blend-mode:overlay">
<path d="M280.5 298.788V462.957" stroke="#5F5F7E" stroke-width="1.14" stroke-miterlimit="10"/>
</g>
<g style="mix-blend-mode:overlay">
<path d="M283.32 296.117H277.673V301.734H283.32V296.117Z" fill="#5F5F7E"/>
</g>
<g style="mix-blend-mode:overlay">
<path d="M277.284 462.801C277.285 463.433 277.475 464.051 277.829 464.576C278.184 465.101 278.687 465.51 279.274 465.751C279.862 465.992 280.509 466.054 281.132 465.93C281.756 465.806 282.328 465.501 282.777 465.053C283.226 464.605 283.532 464.035 283.655 463.415C283.779 462.794 283.715 462.151 283.471 461.567C283.227 460.983 282.815 460.484 282.286 460.133C281.757 459.781 281.136 459.594 280.5 459.594C280.077 459.594 279.658 459.677 279.267 459.838C278.877 459.999 278.522 460.236 278.223 460.534C277.924 460.831 277.688 461.185 277.526 461.574C277.365 461.963 277.283 462.38 277.284 462.801Z" fill="#5F5F7E"/>
</g>
</g>
<g style="mix-blend-mode:overlay">
<g style="mix-blend-mode:overlay">
<path d="M318.528 314.554L355.397 403.093" stroke="#5F5F7E" stroke-width="0.95" stroke-miterlimit="10"/>
</g>
<g style="mix-blend-mode:overlay">
<path d="M319.842 311.607L315.509 313.392L317.304 317.702L321.637 315.917L319.842 311.607Z" fill="#5F5F7E"/>
</g>
<g style="mix-blend-mode:overlay">
<path d="M352.877 403.986C353.079 404.47 353.422 404.885 353.862 405.176C354.301 405.467 354.817 405.622 355.345 405.621C355.873 405.621 356.389 405.464 356.828 405.172C357.267 404.88 357.608 404.465 357.81 403.98C358.012 403.494 358.064 402.96 357.961 402.445C357.857 401.93 357.603 401.457 357.23 401.086C356.856 400.715 356.38 400.462 355.863 400.36C355.345 400.257 354.808 400.31 354.32 400.511C353.996 400.645 353.701 400.841 353.453 401.088C353.205 401.335 353.008 401.628 352.874 401.951C352.74 402.273 352.671 402.619 352.672 402.968C352.672 403.317 352.742 403.663 352.877 403.986Z" fill="#5F5F7E"/>
</g>
</g>
<g style="mix-blend-mode:overlay">
<g style="mix-blend-mode:overlay">
<path d="M334.349 276.802L400.21 342.313" stroke="#5F5F7E" stroke-width="0.87" stroke-miterlimit="10"/>
</g>
<g style="mix-blend-mode:overlay">
<path d="M334.419 273.869L331.393 276.879L334.419 279.888L337.444 276.879L334.419 273.869Z" fill="#5F5F7E"/>
</g>
<g style="mix-blend-mode:overlay">
<path d="M398.4 343.943C398.741 344.282 399.176 344.513 399.649 344.607C400.122 344.7 400.612 344.652 401.057 344.469C401.503 344.285 401.884 343.974 402.152 343.575C402.42 343.176 402.563 342.708 402.563 342.228C402.563 341.748 402.42 341.279 402.152 340.88C401.884 340.481 401.503 340.17 401.057 339.987C400.612 339.803 400.122 339.755 399.649 339.849C399.176 339.942 398.741 340.174 398.4 340.513C397.945 340.969 397.689 341.585 397.689 342.228C397.689 342.87 397.945 343.487 398.4 343.943Z" fill="#5F5F7E"/>
</g>
</g>
<g style="mix-blend-mode:overlay">
<g style="mix-blend-mode:overlay">
<path d="M351.552 253.068L539.188 329.836" stroke="#5F5F7E" stroke-width="1.27" stroke-miterlimit="10"/>
</g>
<g style="mix-blend-mode:overlay">
<path d="M349.992 249.07L347.607 254.836L353.404 257.208L355.789 251.442L349.992 249.07Z" fill="#5F5F7E"/>
</g>
<g style="mix-blend-mode:overlay">
<path d="M537.67 333.05C538.322 333.317 539.04 333.384 539.731 333.245C540.423 333.106 541.057 332.766 541.555 332.269C542.052 331.771 542.39 331.138 542.525 330.449C542.661 329.761 542.588 329.048 542.317 328.4C542.045 327.752 541.586 327.2 540.999 326.811C540.411 326.423 539.721 326.216 539.016 326.218C538.31 326.22 537.621 326.429 537.035 326.82C536.45 327.211 535.994 327.766 535.725 328.415C535.366 329.286 535.369 330.264 535.734 331.133C536.099 332.001 536.795 332.691 537.67 333.05Z" fill="#5F5F7E"/>
</g>
</g>
<g style="mix-blend-mode:overlay">
<g style="mix-blend-mode:overlay">
<path d="M380.807 223.746L497.517 223.255" stroke="#5F5F7E" stroke-width="1.05" stroke-miterlimit="10"/>
</g>
<g style="mix-blend-mode:overlay">
<path d="M383.496 221.194L378.335 221.215L378.357 226.349L383.518 226.328L383.496 221.194Z" fill="#5F5F7E"/>
</g>
<g style="mix-blend-mode:overlay">
<path d="M497.42 226.179C497.999 226.168 498.563 225.988 499.039 225.66C499.516 225.333 499.885 224.872 500.099 224.336C500.313 223.801 500.364 223.214 500.244 222.65C500.124 222.086 499.839 221.57 499.425 221.167C499.011 220.763 498.487 220.491 497.918 220.383C497.348 220.275 496.76 220.337 496.226 220.561C495.692 220.785 495.236 221.161 494.916 221.641C494.596 222.122 494.427 222.686 494.428 223.262C494.429 223.65 494.507 224.034 494.659 224.391C494.81 224.748 495.032 225.072 495.31 225.344C495.589 225.615 495.918 225.829 496.281 225.972C496.643 226.115 497.03 226.186 497.42 226.179Z" fill="#5F5F7E"/>
</g>
</g>
<g style="mix-blend-mode:overlay">
<g style="mix-blend-mode:overlay">
<path d="M351.478 194.007L503.149 131.509" stroke="#5F5F7E" stroke-width="1.14" stroke-miterlimit="10"/>
</g>
<g style="mix-blend-mode:overlay">
<path d="M353.145 190.255L347.921 192.407L350.082 197.597L355.306 195.444L353.145 190.255Z" fill="#5F5F7E"/>
</g>
<g style="mix-blend-mode:overlay">
<path d="M504.234 134.523C504.822 134.28 505.324 133.87 505.677 133.344C506.031 132.818 506.219 132.2 506.219 131.567C506.22 130.935 506.031 130.316 505.678 129.79C505.325 129.264 504.822 128.854 504.235 128.612C503.647 128.369 503.001 128.306 502.377 128.429C501.753 128.552 501.18 128.856 500.73 129.303C500.28 129.751 499.973 130.32 499.849 130.941C499.724 131.561 499.788 132.204 500.031 132.789C500.192 133.177 500.429 133.531 500.727 133.828C501.026 134.125 501.381 134.361 501.771 134.522C502.162 134.683 502.58 134.766 503.003 134.766C503.425 134.766 503.844 134.683 504.234 134.523Z" fill="#5F5F7E"/>
</g>
</g>
<g style="mix-blend-mode:overlay">
<g style="mix-blend-mode:overlay">
<path d="M334.812 169.224L400.719 103.735" stroke="#5F5F7E" stroke-width="1.14" stroke-miterlimit="10"/>
</g>
<g style="mix-blend-mode:overlay">
<path d="M334.926 165.167L330.925 169.142L334.916 173.116L338.917 169.141L334.926 165.167Z" fill="#5F5F7E"/>
</g>
<g style="mix-blend-mode:overlay">
<path d="M402.88 106.116C403.329 105.668 403.635 105.098 403.758 104.477C403.881 103.857 403.817 103.214 403.573 102.63C403.33 102.046 402.917 101.547 402.389 101.196C401.86 100.845 401.238 100.657 400.603 100.657C399.967 100.657 399.345 100.845 398.817 101.196C398.288 101.547 397.876 102.046 397.632 102.63C397.388 103.214 397.324 103.857 397.447 104.477C397.571 105.098 397.876 105.668 398.325 106.116C398.929 106.716 399.749 107.053 400.603 107.053C401.457 107.053 402.276 106.716 402.88 106.116Z" fill="#5F5F7E"/>
</g>
</g>
<g style="mix-blend-mode:overlay">
<g style="mix-blend-mode:overlay">
<path d="M310.368 152.833L362.069 27.6138" stroke="#5F5F7E" stroke-width="1.14" stroke-miterlimit="10"/>
</g>
<g style="mix-blend-mode:overlay">
<path d="M308.886 149.043L306.737 154.246L311.961 156.38L314.109 151.177L308.886 149.043Z" fill="#5F5F7E"/>
</g>
<g style="mix-blend-mode:overlay">
<path d="M364.979 28.9753C365.141 28.587 365.223 28.1708 365.223 27.7506C365.222 27.3304 365.138 26.9145 364.975 26.5267C364.813 26.1389 364.575 25.7869 364.275 25.4908C363.975 25.1947 363.62 24.9604 363.229 24.8013C362.441 24.4814 361.558 24.4849 360.773 24.8113C359.988 25.1376 359.365 25.76 359.04 26.5423C358.716 27.3287 358.72 28.2108 359.049 28.9948C359.379 29.7788 360.008 30.4007 360.798 30.7237C361.586 31.0409 362.468 31.035 363.251 30.7074C364.035 30.3798 364.656 29.7571 364.979 28.9753Z" fill="#5F5F7E"/>
</g>
</g>
<g style="mix-blend-mode:overlay">
<path d="M280.5 389.418C372.768 389.418 447.566 315.017 447.566 223.24C447.566 131.462 372.768 57.0621 280.5 57.0621C188.232 57.0621 113.434 131.462 113.434 223.24C113.434 315.017 188.232 389.418 280.5 389.418Z" stroke="white" stroke-width="1.72" stroke-miterlimit="10"/>
</g>
<g style="mix-blend-mode:overlay">
<path d="M280.5 300.849C323.591 300.849 358.524 266.102 358.524 223.24C358.524 180.377 323.591 145.631 280.5 145.631C237.409 145.631 202.476 180.377 202.476 223.24C202.476 266.102 237.409 300.849 280.5 300.849Z" stroke="#5F5F7E" stroke-width="2.29" stroke-miterlimit="10"/>
</g>
<g style="mix-blend-mode:overlay">
<g style="mix-blend-mode:overlay">
<path d="M330.93 248.016C335.855 238.095 337.713 226.945 336.267 215.975C334.821 205.004 330.138 194.707 322.809 186.384C315.48 178.061 305.834 172.087 295.091 169.217C284.349 166.347 272.992 166.71 262.457 170.26C251.921 173.81 242.681 180.387 235.904 189.161C229.127 197.934 225.117 208.51 224.383 219.55C223.648 230.59 226.221 241.598 231.776 251.184C237.331 260.77 245.619 268.502 255.592 273.402C268.967 279.97 284.417 280.985 298.545 276.225C312.673 271.464 324.322 261.318 330.93 248.016Z" stroke="#5F5F7E" stroke-width="11.98" stroke-miterlimit="10" stroke-dasharray="135.68 21.81"/>
</g>
</g>
<g style="mix-blend-mode:overlay">
<path d="M417.915 223.24C417.908 196.208 409.842 169.785 394.738 147.312C379.635 124.839 358.171 107.326 333.061 96.9863C307.951 86.6467 280.322 83.9452 253.669 89.2234C227.015 94.5016 202.534 107.522 183.32 126.64C164.106 145.757 151.022 170.112 145.723 196.625C140.424 223.138 143.147 250.619 153.549 275.593C163.95 300.566 181.563 321.911 204.16 336.929C226.757 351.946 253.324 359.962 280.5 359.962C298.549 359.962 316.421 356.425 333.095 349.554C349.77 342.682 364.92 332.611 377.68 319.915C390.441 307.218 400.562 292.146 407.466 275.558C414.369 258.971 417.92 241.193 417.915 223.24V223.24Z" stroke="#5F5F7E" stroke-width="29.26" stroke-miterlimit="10" stroke-linecap="round"/>
</g>
</g>
<defs>
<filter id="filter0_d_190_23" x="5.67505" y="24.5639" width="540.917" height="449.429" filterUnits="userSpaceOnUse" color-interpolation-filters="sRGB">
<feFlood flood-opacity="0" result="BackgroundImageFix"/>
<feColorMatrix in="SourceAlpha" type="matrix" values="0 0 0 0 0 0 0 0 0 0 0 0 0 0 0 0 0 0 127 0" result="hardAlpha"/>
<feOffset dy="4"/>
<feGaussianBlur stdDeviation="2"/>
<feComposite in2="hardAlpha" operator="out"/>
<feColorMatrix type="matrix" values="0 0 0 0 0 0 0 0 0 0 0 0 0 0 0 0 0 0 0.25 0"/>
<feBlend mode="normal" in2="BackgroundImageFix" result="effect1_dropShadow_190_23"/>
<feBlend mode="normal" in="SourceGraphic" in2="effect1_dropShadow_190_23" result="shape"/>
</filter>
</defs>
</svg>
