<svg width="561" height="473" viewBox="0 0 561 473" fill="none" xmlns="http://www.w3.org/2000/svg">
<g filter="url(#filter0_d_190_22)">
<g style="mix-blend-mode:overlay">
<g style="mix-blend-mode:overlay">
<path d="M341.761 283.175L332.912 274.374C339.683 267.658 345.079 259.698 348.8 250.937L360.327 255.788C355.981 266.028 349.676 275.329 341.761 283.175Z" fill="#5F5F7E"/>
</g>
</g>
<g style="mix-blend-mode:overlay">
<g style="mix-blend-mode:overlay">
<path d="M280.5 308.42C266.256 308.406 252.235 304.902 239.676 298.216C227.118 291.531 216.409 281.87 208.496 270.089C200.584 258.308 195.712 244.769 194.311 230.669C192.91 216.57 195.023 202.344 200.464 189.25L212.028 194.019C207.359 205.222 205.54 217.397 206.734 229.466C207.929 241.535 212.098 253.125 218.874 263.207C225.65 273.289 234.822 281.552 245.577 287.264C256.332 292.976 268.338 295.959 280.53 295.95L280.5 308.42Z" fill="#5F5F7E"/>
</g>
</g>
<g style="mix-blend-mode:overlay">
<path d="M355.547 147.919C335.774 128.29 308.979 117.265 281.042 117.265C253.106 117.265 226.311 128.29 206.538 147.919" stroke="#5F5F7E" stroke-width="21.93" stroke-miterlimit="10"/>
</g>
<g style="mix-blend-mode:overlay">
<path d="M378.353 262.112C383.561 249.631 386.291 236.266 386.394 222.753" stroke="#5F5F7E" stroke-width="21.93" stroke-miterlimit="10"/>
</g>
<g style="mix-blend-mode:overlay">
<path d="M175.675 222.017C175.669 239.251 179.939 256.221 188.105 271.421C196.272 286.621 208.084 299.582 222.493 309.154C236.902 318.725 253.463 324.612 270.707 326.292C287.951 327.972 305.346 325.393 321.348 318.784" stroke="#5F5F7E" stroke-width="21.93" stroke-miterlimit="10"/>
</g>
<g style="mix-blend-mode:overlay">
<path d="M387.995 222.24C387.988 201.094 381.677 180.425 369.861 162.846C358.045 145.268 341.253 131.569 321.611 123.482C301.968 115.395 280.355 113.283 259.506 117.412C238.656 121.542 219.506 131.729 204.476 146.684C189.447 161.639 179.212 180.691 175.068 201.431C170.923 222.171 173.054 243.668 181.191 263.204C189.328 282.739 203.106 299.436 220.783 311.183C238.46 322.931 259.241 329.201 280.5 329.201C294.62 329.201 308.601 326.434 321.645 321.058C334.69 315.682 346.541 307.803 356.524 297.87C366.506 287.938 374.423 276.146 379.823 263.169C385.223 250.192 388 236.284 387.995 222.24V222.24Z" stroke="#5F5F7E" stroke-width="22.89" stroke-miterlimit="10" stroke-linecap="round"/>
</g>
<g style="mix-blend-mode:overlay">
<path d="M289.563 348.979C359.945 344.01 412.951 283.229 407.955 213.221C402.959 143.214 341.854 90.4893 271.472 95.4584C201.09 100.427 148.084 161.208 153.079 231.216C158.075 301.224 219.181 353.948 289.563 348.979Z" stroke="#5F5F7E" stroke-width="16.88" stroke-miterlimit="10" stroke-dasharray="142.08 14.56"/>
</g>
<g style="mix-blend-mode:overlay">
<g style="mix-blend-mode:overlay">
<path d="M428.604 222.24C428.604 140.873 362.286 74.9232 280.5 74.9232C198.714 74.9232 132.396 140.888 132.396 222.24C132.396 303.591 198.714 369.557 280.5 369.557C362.286 369.557 428.604 303.614 428.604 222.24Z" stroke="white" stroke-width="14.94" stroke-miterlimit="10" stroke-dasharray="2.48 4.97"/>
</g>
</g>
<g style="mix-blend-mode:overlay">
<g style="mix-blend-mode:overlay">
<path d="M280.5 289.113C317.63 289.113 347.73 259.173 347.73 222.24C347.73 185.307 317.63 155.367 280.5 155.367C243.37 155.367 213.27 185.307 213.27 222.24C213.27 259.173 243.37 289.113 280.5 289.113Z" stroke="white" stroke-width="2.29" stroke-miterlimit="10" stroke-dasharray="1.14 15"/>
</g>
</g>
<g style="mix-blend-mode:overlay">
<g style="mix-blend-mode:overlay">
<path d="M398.063 222.24C398.063 199.112 391.168 176.503 378.25 157.272C365.332 138.042 346.971 123.054 325.489 114.203C304.008 105.352 280.37 103.036 257.565 107.549C234.76 112.061 213.812 123.198 197.37 139.552C180.929 155.906 169.732 176.743 165.196 199.426C160.66 222.11 162.988 245.623 171.886 266.99C180.784 288.358 195.852 306.621 215.185 319.47C234.519 332.32 257.248 339.178 280.5 339.178C295.939 339.178 311.226 336.153 325.489 330.277C339.753 324.4 352.713 315.786 363.63 304.928C374.546 294.069 383.206 281.178 389.114 266.99C395.022 252.803 398.063 237.596 398.063 222.24Z" stroke="white" stroke-width="4" stroke-miterlimit="10" stroke-dasharray="1.99 26.22"/>
</g>
</g>
<g style="mix-blend-mode:overlay">
<path d="M392.505 333.65C454.363 272.121 454.363 172.363 392.506 110.834C330.648 49.3054 230.357 49.3054 168.499 110.834C106.641 172.363 106.641 272.121 168.499 333.65C230.357 395.179 330.648 395.179 392.505 333.65Z" stroke="white" stroke-width="2.35" stroke-miterlimit="10"/>
</g>
<g style="mix-blend-mode:overlay">
<g style="mix-blend-mode:overlay">
<path d="M375.421 54.3285C338.543 33.7364 295.908 25.702 254.013 31.4498" stroke="white" stroke-width="1.72" stroke-miterlimit="10" stroke-linecap="round"/>
</g>
<g style="mix-blend-mode:overlay">
<path d="M374.453 51.4314L372.414 55.1303L376.133 57.1588L378.172 53.4599L374.453 51.4314Z" fill="white"/>
</g>
<g style="mix-blend-mode:overlay">
<path d="M255.958 29.0987L251.751 29.6296L252.284 33.8147L256.492 33.2837L255.958 29.0987Z" fill="white"/>
</g>
</g>
<g style="mix-blend-mode:overlay">
<g style="mix-blend-mode:overlay">
<path d="M473.873 232.016C475.259 205.447 471.083 178.88 461.607 154C452.132 129.12 437.564 106.469 418.828 87.4823" stroke="white" stroke-width="1.72" stroke-miterlimit="10" stroke-linecap="round"/>
</g>
<g style="mix-blend-mode:overlay">
<path d="M471.748 229.713L471.6 233.929L475.838 234.077L475.987 229.861L471.748 229.713Z" fill="white"/>
</g>
<g style="mix-blend-mode:overlay">
<path d="M418.945 84.6007L415.865 87.5009L418.781 90.5645L421.861 87.6643L418.945 84.6007Z" fill="white"/>
</g>
</g>
<g style="mix-blend-mode:overlay">
<g style="mix-blend-mode:overlay">
<path d="M418.828 356.997C436.016 339.588 449.709 319.079 459.175 296.568" stroke="white" stroke-width="1.72" stroke-miterlimit="10" stroke-linecap="round"/>
</g>
<g style="mix-blend-mode:overlay">
<path d="M418.8 353.941L415.877 356.999L418.951 359.905L421.873 356.848L418.8 353.941Z" fill="white"/>
</g>
<g style="mix-blend-mode:overlay">
<path d="M457.99 293.867L456.301 297.736L460.191 299.417L461.88 295.548L457.99 293.867Z" fill="white"/>
</g>
</g>
<g style="mix-blend-mode:overlay">
<g style="mix-blend-mode:overlay">
<path d="M145.022 359.832C164.11 378.472 186.883 392.965 211.898 402.39C236.913 411.815 263.623 415.968 290.336 414.585" stroke="white" stroke-width="1.72" stroke-miterlimit="10" stroke-linecap="round"/>
</g>
<g style="mix-blend-mode:overlay">
<path d="M145.043 356.895L142.128 359.958L145.208 362.858L148.123 359.795L145.043 356.895Z" fill="white"/>
</g>
<g style="mix-blend-mode:overlay">
<path d="M292.309 412.339L288.07 412.488L288.22 416.704L292.458 416.555L292.309 412.339Z" fill="white"/>
</g>
</g>
<g style="mix-blend-mode:overlay">
<g style="mix-blend-mode:overlay">
<path d="M142.172 87.4822C116.382 113.645 98.6349 146.586 91.0149 182.434C83.3948 218.282 86.2187 255.549 99.1549 289.857" stroke="white" stroke-width="1.72" stroke-miterlimit="10" stroke-linecap="round"/>
</g>
<g style="mix-blend-mode:overlay">
<path d="M142.066 84.5856L139.114 87.6146L142.159 90.5509L145.111 87.5219L142.066 84.5856Z" fill="white"/>
</g>
<g style="mix-blend-mode:overlay">
<path d="M100.419 287.044L96.4312 288.479L97.8741 292.446L101.862 291.011L100.419 287.044Z" fill="white"/>
</g>
</g>
<g style="mix-blend-mode:overlay">
<g style="mix-blend-mode:overlay">
<path d="M349.002 194.026C341.462 175.968 327.027 161.622 308.866 154.137C290.704 146.652 270.299 146.64 252.128 154.102L247.334 142.607C268.568 133.895 292.408 133.914 313.629 142.659C334.849 151.404 351.717 168.161 360.536 189.257L349.002 194.026Z" fill="#5F5F7E"/>
</g>
</g>
<g style="mix-blend-mode:overlay">
<g style="mix-blend-mode:overlay">
<path d="M368.921 222.24C368.921 204.845 363.735 187.84 354.019 173.377C344.304 158.913 330.494 147.641 314.337 140.984C298.18 134.327 280.402 132.585 263.25 135.979C246.098 139.372 230.343 147.749 217.977 160.049C205.611 172.349 197.19 188.021 193.778 205.082C190.366 222.142 192.117 239.826 198.81 255.897C205.502 271.968 216.835 285.704 231.376 295.369C245.917 305.033 263.012 310.191 280.5 310.191C303.95 310.189 326.439 300.922 343.021 284.429C359.603 267.935 368.919 245.565 368.921 222.24Z" stroke="white" stroke-width="12.59" stroke-miterlimit="10" stroke-dasharray="4.58 9.17"/>
</g>
</g>
<g style="mix-blend-mode:overlay">
<g style="mix-blend-mode:overlay">
<path d="M451.156 174.511C440.685 137.557 418.384 105.007 387.636 81.7979" stroke="white" stroke-width="1.72" stroke-miterlimit="10" stroke-linecap="round"/>
</g>
<g style="mix-blend-mode:overlay">
<path d="M452.54 171.758L448.469 172.939L449.656 176.989L453.727 175.808L452.54 171.758Z" fill="white"/>
</g>
<g style="mix-blend-mode:overlay">
<path d="M387.308 78.905L384.71 82.2397L388.063 84.8236L390.66 81.4889L387.308 78.905Z" fill="white"/>
</g>
</g>
<g style="mix-blend-mode:overlay">
<g style="mix-blend-mode:overlay">
<path d="M399.432 352.95C417.563 336.666 432.104 316.821 442.137 294.667C452.17 272.513 457.477 248.531 457.724 224.234" stroke="white" stroke-width="1.72" stroke-miterlimit="10" stroke-linecap="round"/>
</g>
<g style="mix-blend-mode:overlay">
<path d="M399.582 349.855L396.479 352.732L399.371 355.818L402.474 352.941L399.582 349.855Z" fill="white"/>
</g>
<g style="mix-blend-mode:overlay">
<path d="M455.617 222.181L455.501 226.398L459.741 226.513L459.856 222.296L455.617 222.181Z" fill="white"/>
</g>
</g>
<g style="mix-blend-mode:overlay">
<g style="mix-blend-mode:overlay">
<path d="M282.512 398.521C304.853 398.295 326.947 393.857 347.625 385.442" stroke="white" stroke-width="1.72" stroke-miterlimit="10" stroke-linecap="round"/>
</g>
<g style="mix-blend-mode:overlay">
<path d="M284.68 396.321L280.441 396.427L280.547 400.644L284.787 400.538L284.68 396.321Z" fill="white"/>
</g>
<g style="mix-blend-mode:overlay">
<path d="M348.726 382.685L344.781 384.232L346.336 388.157L350.282 386.609L348.726 382.685Z" fill="white"/>
</g>
</g>
<g style="mix-blend-mode:overlay">
<g style="mix-blend-mode:overlay">
<path d="M103.284 224.241C103.533 248.538 108.843 272.521 118.877 294.674C128.911 316.828 143.452 336.673 161.583 352.957" stroke="white" stroke-width="1.72" stroke-miterlimit="10" stroke-linecap="round"/>
</g>
<g style="mix-blend-mode:overlay">
<path d="M105.387 222.181L101.147 222.296L101.263 226.513L105.502 226.398L105.387 222.181Z" fill="white"/>
</g>
<g style="mix-blend-mode:overlay">
<path d="M161.429 349.883L158.537 352.969L161.64 355.845L164.532 352.759L161.429 349.883Z" fill="white"/>
</g>
</g>
<g style="mix-blend-mode:overlay">
<g style="mix-blend-mode:overlay">
<path d="M278.488 45.9658C244.831 46.3284 211.974 56.2209 183.764 74.485C155.554 92.7492 133.159 118.629 119.201 149.095" stroke="white" stroke-width="1.72" stroke-miterlimit="10" stroke-linecap="round"/>
</g>
<g style="mix-blend-mode:overlay">
<path d="M280.436 43.845L276.197 43.9746L276.327 48.1912L280.566 48.0617L280.436 43.845Z" fill="white"/>
</g>
<g style="mix-blend-mode:overlay">
<path d="M118.249 146.216L116.45 150.036L120.29 151.826L122.09 148.006L118.249 146.216Z" fill="white"/>
</g>
</g>
<g style="mix-blend-mode:overlay">
<g style="mix-blend-mode:overlay">
<path d="M280.5 145.843V54.9535" stroke="#5F5F7E" stroke-width="1.14" stroke-miterlimit="10"/>
</g>
<g style="mix-blend-mode:overlay">
<path d="M283.32 142.897H277.673V148.514H283.32V142.897Z" fill="#5F5F7E"/>
</g>
<g style="mix-blend-mode:overlay">
<path d="M283.716 55.1098C283.715 54.4773 283.525 53.8595 283.171 53.3344C282.816 52.8092 282.314 52.4003 281.726 52.1593C281.138 51.9183 280.491 51.856 279.868 51.9803C279.245 52.1046 278.672 52.4099 278.223 52.8576C277.774 53.3053 277.468 53.8754 277.345 54.4958C277.221 55.1162 277.286 55.7591 277.529 56.3432C277.773 56.9274 278.185 57.4266 278.714 57.7778C279.243 58.1291 279.864 58.3165 280.5 58.3165C280.923 58.3165 281.342 58.2335 281.733 58.0723C282.123 57.911 282.478 57.6747 282.777 57.3768C283.076 57.079 283.313 56.7254 283.474 56.3364C283.635 55.9474 283.717 55.5305 283.716 55.1098Z" fill="#5F5F7E"/>
</g>
</g>
<g style="mix-blend-mode:overlay">
<g style="mix-blend-mode:overlay">
<path d="M251.104 151.639L203.643 37.6772" stroke="#5F5F7E" stroke-width="1.14" stroke-miterlimit="10"/>
</g>
<g style="mix-blend-mode:overlay">
<path d="M252.586 147.847L247.361 150L249.522 155.19L254.747 153.037L252.586 147.847Z" fill="#5F5F7E"/>
</g>
<g style="mix-blend-mode:overlay">
<path d="M206.68 36.5984C206.352 35.8151 205.726 35.1928 204.938 34.8679C204.15 34.543 203.265 34.5419 202.476 34.8648C201.691 35.1892 201.067 35.8096 200.74 36.5904C200.414 37.3711 200.411 38.2487 200.733 39.0314C200.893 39.423 201.13 39.7792 201.429 40.0794C201.728 40.3797 202.084 40.618 202.476 40.7805C202.869 40.9431 203.289 41.0268 203.714 41.0266C204.139 41.0265 204.56 40.9426 204.952 40.7798C205.738 40.4527 206.362 39.8286 206.686 39.0447C207.01 38.2607 207.008 37.3809 206.68 36.5984Z" fill="#5F5F7E"/>
</g>
</g>
<g style="mix-blend-mode:overlay">
<g style="mix-blend-mode:overlay">
<path d="M210.098 152.212L129.337 71.8801" stroke="#5F5F7E" stroke-width="1.14" stroke-miterlimit="10"/>
</g>
<g style="mix-blend-mode:overlay">
<path d="M209.998 148.138L206.005 152.11L209.998 156.082L213.991 152.11L209.998 148.138Z" fill="#5F5F7E"/>
</g>
<g style="mix-blend-mode:overlay">
<path d="M131.723 69.7298C131.273 69.2833 130.699 68.9795 130.076 68.8568C129.452 68.7341 128.806 68.798 128.219 69.0404C127.632 69.2829 127.13 69.6929 126.777 70.2189C126.424 70.7448 126.235 71.363 126.235 71.9953C126.235 72.6277 126.424 73.2459 126.777 73.7718C127.13 74.2977 127.632 74.7078 128.219 74.9502C128.806 75.1926 129.452 75.2565 130.076 75.1338C130.699 75.0111 131.273 74.7074 131.723 74.2609C132.022 73.9637 132.26 73.6106 132.422 73.2218C132.585 72.833 132.668 72.4162 132.668 71.9953C132.668 71.5744 132.585 71.1576 132.422 70.7688C132.26 70.3801 132.022 70.027 131.723 69.7298Z" fill="#5F5F7E"/>
</g>
</g>
<g style="mix-blend-mode:overlay">
<g style="mix-blend-mode:overlay">
<path d="M209.26 192.896L23.8911 116.521" stroke="#5F5F7E" stroke-width="1.26" stroke-miterlimit="10"/>
</g>
<g style="mix-blend-mode:overlay">
<path d="M207.431 188.774L205.044 194.507L210.807 196.882L213.195 191.149L207.431 188.774Z" fill="#5F5F7E"/>
</g>
<g style="mix-blend-mode:overlay">
<path d="M25.4321 113.322C24.7828 113.054 24.0681 112.984 23.3786 113.12C22.6891 113.256 22.0556 113.593 21.5585 114.087C21.0613 114.581 20.7227 115.211 20.5856 115.897C20.4485 116.583 20.519 117.294 20.7881 117.94C21.0573 118.586 21.5131 119.138 22.0978 119.526C22.6825 119.914 23.3698 120.121 24.0728 120.121C24.7758 120.12 25.4629 119.912 26.047 119.523C26.6312 119.134 27.0862 118.582 27.3544 117.935C27.5343 117.507 27.6273 117.048 27.6279 116.583C27.6286 116.119 27.537 115.66 27.3583 115.231C27.1796 114.802 26.9174 114.413 26.5868 114.085C26.2563 113.758 25.8638 113.498 25.4321 113.322Z" fill="#5F5F7E"/>
</g>
</g>
<g style="mix-blend-mode:overlay">
<g style="mix-blend-mode:overlay">
<path d="M203.695 222.24L65.6443 222.024" stroke="#5F5F7E" stroke-width="1.14" stroke-miterlimit="10"/>
</g>
<g style="mix-blend-mode:overlay">
<path d="M200.735 219.428L200.727 225.046L206.374 225.055L206.383 219.437L200.735 219.428Z" fill="#5F5F7E"/>
</g>
<g style="mix-blend-mode:overlay">
<path d="M65.8239 218.825C65.1887 218.822 64.5669 219.006 64.0369 219.354C63.5068 219.702 63.0923 220.199 62.8455 220.781C62.5987 221.363 62.5307 222.005 62.6501 222.626C62.7695 223.246 63.071 223.818 63.5165 224.268C63.9619 224.718 64.5315 225.027 65.1533 225.156C65.7752 225.285 66.4214 225.228 67.0106 224.992C67.5998 224.756 68.1056 224.352 68.4641 223.83C68.8227 223.309 69.018 222.693 69.0254 222.061C69.0303 221.639 68.9512 221.22 68.7928 220.829C68.6343 220.438 68.3995 220.081 68.1019 219.78C67.8043 219.479 67.4498 219.24 67.0589 219.076C66.6679 218.912 66.2482 218.827 65.8239 218.825Z" fill="#5F5F7E"/>
</g>
</g>
<g style="mix-blend-mode:overlay">
<g style="mix-blend-mode:overlay">
<path d="M209.515 251.473L12.7385 332.564" stroke="#5F5F7E" stroke-width="1.14" stroke-miterlimit="10"/>
</g>
<g style="mix-blend-mode:overlay">
<path d="M210.92 247.843L205.696 249.997L207.86 255.193L213.085 253.039L210.92 247.843Z" fill="#5F5F7E"/>
</g>
<g style="mix-blend-mode:overlay">
<path d="M11.6538 329.543C11.0672 329.786 10.5661 330.197 10.2139 330.723C9.86175 331.25 9.67423 331.868 9.67505 332.5C9.67587 333.132 9.86499 333.75 10.2185 334.276C10.5721 334.801 11.0742 335.21 11.6615 335.452C12.2488 335.694 12.8949 335.757 13.5184 335.634C14.1418 335.511 14.7145 335.207 15.1642 334.76C15.614 334.313 15.9206 333.744 16.0453 333.124C16.17 332.504 16.1073 331.861 15.8651 331.277C15.7037 330.887 15.4666 330.533 15.1673 330.235C14.8681 329.937 14.5127 329.701 14.1214 329.54C13.7301 329.379 13.3107 329.296 12.8873 329.297C12.4638 329.297 12.0447 329.381 11.6538 329.543Z" fill="#5F5F7E"/>
</g>
</g>
<g style="mix-blend-mode:overlay">
<g style="mix-blend-mode:overlay">
<path d="M226.262 276.189L124.908 377.004" stroke="#5F5F7E" stroke-width="1.07" stroke-miterlimit="10"/>
</g>
<g style="mix-blend-mode:overlay">
<path d="M226.167 272.569L222.428 276.289L226.167 280.009L229.907 276.289L226.167 272.569Z" fill="#5F5F7E"/>
</g>
<g style="mix-blend-mode:overlay">
<path d="M122.889 374.78C122.474 375.197 122.192 375.728 122.08 376.304C121.967 376.88 122.029 377.477 122.256 378.019C122.484 378.56 122.867 379.023 123.358 379.349C123.85 379.674 124.427 379.848 125.017 379.848C125.607 379.848 126.184 379.674 126.676 379.349C127.167 379.023 127.55 378.56 127.778 378.019C128.005 377.477 128.067 376.88 127.954 376.304C127.841 375.728 127.56 375.197 127.145 374.78C126.867 374.5 126.535 374.277 126.17 374.125C125.805 373.974 125.413 373.896 125.017 373.896C124.621 373.896 124.229 373.974 123.864 374.125C123.499 374.277 123.167 374.5 122.889 374.78Z" fill="#5F5F7E"/>
</g>
</g>
<g style="mix-blend-mode:overlay">
<g style="mix-blend-mode:overlay">
<path d="M250.842 292.148L211.632 387.599" stroke="#5F5F7E" stroke-width="0.91" stroke-miterlimit="10"/>
</g>
<g style="mix-blend-mode:overlay">
<path d="M249.566 289.34L247.86 293.493L252.035 295.19L253.741 291.037L249.566 289.34Z" fill="#5F5F7E"/>
</g>
<g style="mix-blend-mode:overlay">
<path d="M209.298 386.491C209.105 386.959 209.055 387.474 209.157 387.971C209.258 388.467 209.505 388.922 209.866 389.279C210.228 389.636 210.687 389.878 211.187 389.975C211.687 390.071 212.205 390.018 212.674 389.822C213.144 389.626 213.544 389.296 213.825 388.874C214.106 388.451 214.254 387.955 214.251 387.449C214.249 386.942 214.095 386.448 213.81 386.028C213.524 385.609 213.121 385.283 212.649 385.092C212.018 384.836 211.311 384.84 210.683 385.102C210.054 385.364 209.556 385.864 209.298 386.491Z" fill="#5F5F7E"/>
</g>
</g>
<g style="mix-blend-mode:overlay">
<g style="mix-blend-mode:overlay">
<path d="M280.5 297.788V461.957" stroke="#5F5F7E" stroke-width="1.14" stroke-miterlimit="10"/>
</g>
<g style="mix-blend-mode:overlay">
<path d="M283.32 295.117H277.673V300.734H283.32V295.117Z" fill="#5F5F7E"/>
</g>
<g style="mix-blend-mode:overlay">
<path d="M277.284 461.801C277.285 462.433 277.475 463.051 277.829 463.576C278.184 464.101 278.687 464.51 279.274 464.751C279.862 464.992 280.509 465.054 281.132 464.93C281.756 464.806 282.328 464.501 282.777 464.053C283.226 463.605 283.532 463.035 283.655 462.415C283.779 461.794 283.715 461.151 283.471 460.567C283.227 459.983 282.815 459.484 282.286 459.133C281.757 458.781 281.136 458.594 280.5 458.594C280.077 458.594 279.658 458.677 279.267 458.838C278.877 458.999 278.522 459.236 278.223 459.534C277.924 459.831 277.688 460.185 277.526 460.574C277.365 460.963 277.283 461.38 277.284 461.801Z" fill="#5F5F7E"/>
</g>
</g>
<g style="mix-blend-mode:overlay">
<g style="mix-blend-mode:overlay">
<path d="M318.528 313.554L355.397 402.093" stroke="#5F5F7E" stroke-width="0.95" stroke-miterlimit="10"/>
</g>
<g style="mix-blend-mode:overlay">
<path d="M319.842 310.607L315.509 312.392L317.304 316.702L321.637 314.917L319.842 310.607Z" fill="#5F5F7E"/>
</g>
<g style="mix-blend-mode:overlay">
<path d="M352.877 402.986C353.079 403.47 353.422 403.885 353.862 404.176C354.301 404.467 354.817 404.622 355.345 404.621C355.873 404.621 356.389 404.464 356.828 404.172C357.267 403.88 357.608 403.465 357.81 402.98C358.012 402.494 358.064 401.96 357.961 401.445C357.857 400.93 357.603 400.457 357.23 400.086C356.856 399.715 356.38 399.462 355.863 399.36C355.345 399.257 354.808 399.31 354.32 399.511C353.996 399.645 353.701 399.841 353.453 400.088C353.205 400.335 353.008 400.628 352.874 400.951C352.74 401.273 352.671 401.619 352.672 401.968C352.672 402.317 352.742 402.663 352.877 402.986Z" fill="#5F5F7E"/>
</g>
</g>
<g style="mix-blend-mode:overlay">
<g style="mix-blend-mode:overlay">
<path d="M334.349 275.802L400.21 341.313" stroke="#5F5F7E" stroke-width="0.87" stroke-miterlimit="10"/>
</g>
<g style="mix-blend-mode:overlay">
<path d="M334.419 272.869L331.393 275.879L334.419 278.888L337.444 275.879L334.419 272.869Z" fill="#5F5F7E"/>
</g>
<g style="mix-blend-mode:overlay">
<path d="M398.4 342.943C398.741 343.282 399.176 343.513 399.649 343.607C400.122 343.7 400.612 343.652 401.057 343.469C401.503 343.285 401.884 342.974 402.152 342.575C402.42 342.176 402.563 341.708 402.563 341.228C402.563 340.748 402.42 340.279 402.152 339.88C401.884 339.481 401.503 339.17 401.057 338.987C400.612 338.803 400.122 338.755 399.649 338.849C399.176 338.942 398.741 339.174 398.4 339.513C397.945 339.969 397.689 340.585 397.689 341.228C397.689 341.87 397.945 342.487 398.4 342.943Z" fill="#5F5F7E"/>
</g>
</g>
<g style="mix-blend-mode:overlay">
<g style="mix-blend-mode:overlay">
<path d="M351.552 252.068L539.188 328.836" stroke="#5F5F7E" stroke-width="1.27" stroke-miterlimit="10"/>
</g>
<g style="mix-blend-mode:overlay">
<path d="M349.992 248.07L347.607 253.836L353.404 256.208L355.789 250.442L349.992 248.07Z" fill="#5F5F7E"/>
</g>
<g style="mix-blend-mode:overlay">
<path d="M537.67 332.05C538.322 332.317 539.04 332.384 539.731 332.245C540.423 332.106 541.057 331.766 541.555 331.269C542.052 330.771 542.39 330.138 542.525 329.449C542.661 328.761 542.588 328.048 542.317 327.4C542.045 326.752 541.586 326.2 540.999 325.811C540.411 325.423 539.721 325.216 539.016 325.218C538.31 325.22 537.621 325.429 537.035 325.82C536.45 326.211 535.994 326.766 535.725 327.415C535.366 328.286 535.369 329.264 535.734 330.133C536.099 331.001 536.795 331.691 537.67 332.05Z" fill="#5F5F7E"/>
</g>
</g>
<g style="mix-blend-mode:overlay">
<g style="mix-blend-mode:overlay">
<path d="M380.807 222.746L497.517 222.255" stroke="#5F5F7E" stroke-width="1.05" stroke-miterlimit="10"/>
</g>
<g style="mix-blend-mode:overlay">
<path d="M383.496 220.194L378.335 220.215L378.357 225.349L383.518 225.328L383.496 220.194Z" fill="#5F5F7E"/>
</g>
<g style="mix-blend-mode:overlay">
<path d="M497.42 225.179C497.999 225.168 498.563 224.988 499.039 224.66C499.516 224.333 499.885 223.872 500.099 223.336C500.313 222.801 500.364 222.214 500.244 221.65C500.124 221.086 499.839 220.57 499.425 220.167C499.011 219.763 498.487 219.491 497.918 219.383C497.348 219.275 496.76 219.337 496.226 219.561C495.692 219.785 495.236 220.161 494.916 220.641C494.596 221.122 494.427 221.686 494.428 222.262C494.429 222.65 494.507 223.034 494.659 223.391C494.81 223.748 495.032 224.072 495.31 224.344C495.589 224.615 495.918 224.829 496.281 224.972C496.643 225.115 497.03 225.186 497.42 225.179Z" fill="#5F5F7E"/>
</g>
</g>
<g style="mix-blend-mode:overlay">
<g style="mix-blend-mode:overlay">
<path d="M351.478 193.007L503.149 130.509" stroke="#5F5F7E" stroke-width="1.14" stroke-miterlimit="10"/>
</g>
<g style="mix-blend-mode:overlay">
<path d="M353.145 189.255L347.921 191.407L350.082 196.597L355.306 194.444L353.145 189.255Z" fill="#5F5F7E"/>
</g>
<g style="mix-blend-mode:overlay">
<path d="M504.234 133.523C504.822 133.28 505.324 132.87 505.677 132.344C506.031 131.818 506.219 131.2 506.219 130.567C506.22 129.935 506.031 129.316 505.678 128.79C505.325 128.264 504.822 127.854 504.235 127.612C503.647 127.369 503.001 127.306 502.377 127.429C501.753 127.552 501.18 127.856 500.73 128.303C500.28 128.751 499.973 129.32 499.849 129.941C499.724 130.561 499.788 131.204 500.031 131.789C500.192 132.177 500.429 132.531 500.727 132.828C501.026 133.125 501.381 133.361 501.771 133.522C502.162 133.683 502.58 133.766 503.003 133.766C503.425 133.766 503.844 133.683 504.234 133.523Z" fill="#5F5F7E"/>
</g>
</g>
<g style="mix-blend-mode:overlay">
<g style="mix-blend-mode:overlay">
<path d="M334.812 168.224L400.719 102.735" stroke="#5F5F7E" stroke-width="1.14" stroke-miterlimit="10"/>
</g>
<g style="mix-blend-mode:overlay">
<path d="M334.926 164.167L330.925 168.142L334.916 172.116L338.917 168.141L334.926 164.167Z" fill="#5F5F7E"/>
</g>
<g style="mix-blend-mode:overlay">
<path d="M402.88 105.116C403.329 104.668 403.635 104.098 403.758 103.477C403.881 102.857 403.817 102.214 403.573 101.63C403.33 101.046 402.917 100.547 402.389 100.196C401.86 99.8447 401.238 99.6573 400.603 99.6573C399.967 99.6573 399.345 99.8447 398.817 100.196C398.288 100.547 397.876 101.046 397.632 101.63C397.388 102.214 397.324 102.857 397.447 103.477C397.571 104.098 397.876 104.668 398.325 105.116C398.929 105.716 399.749 106.053 400.603 106.053C401.457 106.053 402.276 105.716 402.88 105.116Z" fill="#5F5F7E"/>
</g>
</g>
<g style="mix-blend-mode:overlay">
<g style="mix-blend-mode:overlay">
<path d="M310.368 151.833L362.069 26.6138" stroke="#5F5F7E" stroke-width="1.14" stroke-miterlimit="10"/>
</g>
<g style="mix-blend-mode:overlay">
<path d="M308.886 148.043L306.737 153.246L311.961 155.38L314.109 150.177L308.886 148.043Z" fill="#5F5F7E"/>
</g>
<g style="mix-blend-mode:overlay">
<path d="M364.979 27.9753C365.141 27.587 365.223 27.1708 365.223 26.7506C365.222 26.3304 365.138 25.9145 364.975 25.5267C364.813 25.1389 364.575 24.7869 364.275 24.4908C363.975 24.1947 363.62 23.9604 363.229 23.8013C362.441 23.4814 361.558 23.4849 360.773 23.8113C359.988 24.1376 359.365 24.76 359.04 25.5423C358.716 26.3287 358.72 27.2108 359.049 27.9948C359.379 28.7788 360.008 29.4007 360.798 29.7237C361.586 30.0409 362.468 30.035 363.251 29.7074C364.035 29.3798 364.656 28.7571 364.979 27.9753Z" fill="#5F5F7E"/>
</g>
</g>
<g style="mix-blend-mode:overlay">
<path d="M280.5 388.418C372.768 388.418 447.566 314.017 447.566 222.24C447.566 130.462 372.768 56.0621 280.5 56.0621C188.232 56.0621 113.434 130.462 113.434 222.24C113.434 314.017 188.232 388.418 280.5 388.418Z" stroke="white" stroke-width="1.72" stroke-miterlimit="10"/>
</g>
<g style="mix-blend-mode:overlay">
<path d="M280.5 299.849C323.591 299.849 358.524 265.102 358.524 222.24C358.524 179.377 323.591 144.631 280.5 144.631C237.409 144.631 202.476 179.377 202.476 222.24C202.476 265.102 237.409 299.849 280.5 299.849Z" stroke="#5F5F7E" stroke-width="2.29" stroke-miterlimit="10"/>
</g>
<g style="mix-blend-mode:overlay">
<path d="M417.915 222.24C417.908 195.208 409.842 168.785 394.738 146.312C379.635 123.839 358.171 106.326 333.061 95.9863C307.951 85.6467 280.322 82.9452 253.669 88.2234C227.015 93.5016 202.534 106.522 183.32 125.64C164.106 144.757 151.022 169.112 145.723 195.625C140.424 222.138 143.147 249.619 153.549 274.593C163.95 299.566 181.563 320.911 204.16 335.929C226.757 350.946 253.324 358.962 280.5 358.962C298.549 358.962 316.421 355.425 333.095 348.554C349.77 341.682 364.92 331.611 377.68 318.915C390.441 306.218 400.562 291.146 407.466 274.558C414.369 257.971 417.92 240.193 417.915 222.24Z" stroke="#5F5F7E" stroke-width="29.26" stroke-miterlimit="10" stroke-linecap="round"/>
</g>
</g>
<g opacity="0.5" clip-path="url(#clip0_190_22)">
<g style="mix-blend-mode:color-dodge">
<path style="mix-blend-mode:screen" opacity="0.25" d="M122.078 328.208C112.884 337.646 106.722 349.574 104.37 362.482C102.019 375.39 103.583 388.7 108.866 400.727C114.149 412.754 122.913 422.96 134.05 430.052C145.187 437.144 158.197 440.805 171.434 440.572C184.671 440.339 197.541 436.222 208.416 428.742C219.292 421.262 227.684 410.755 232.532 398.549C237.381 386.343 238.467 372.987 235.654 360.17C232.84 347.353 226.254 335.65 216.728 326.541C210.403 320.492 202.937 315.737 194.757 312.547C186.577 309.358 177.843 307.795 169.054 307.95C160.265 308.105 151.592 309.974 143.532 313.449C135.472 316.925 128.182 321.94 122.078 328.208Z" fill="url(#paint0_radial_190_22)"/>
<path style="mix-blend-mode:screen" d="M240.695 371.456C240.39 371.771 240.185 372.168 240.107 372.598C240.03 373.028 240.082 373.471 240.258 373.871C240.434 374.271 240.726 374.611 241.097 374.847C241.467 375.083 241.9 375.206 242.341 375.198C242.781 375.191 243.21 375.055 243.572 374.806C243.935 374.558 244.215 374.209 244.378 373.803C244.54 373.397 244.578 372.953 244.485 372.526C244.393 372.099 244.176 371.709 243.86 371.404C243.649 371.201 243.399 371.042 243.126 370.935C242.852 370.828 242.56 370.775 242.266 370.78C241.973 370.785 241.682 370.847 241.413 370.963C241.143 371.079 240.899 371.247 240.695 371.456Z" fill="url(#paint1_radial_190_22)"/>
<path style="mix-blend-mode:screen" d="M409.272 369.946C408.967 370.261 408.764 370.659 408.687 371.089C408.61 371.519 408.663 371.962 408.84 372.362C409.016 372.762 409.309 373.101 409.68 373.336C410.051 373.572 410.484 373.693 410.924 373.685C411.365 373.677 411.793 373.54 412.155 373.291C412.517 373.043 412.797 372.693 412.959 372.287C413.121 371.881 413.157 371.436 413.064 371.009C412.972 370.583 412.753 370.193 412.437 369.889C412.226 369.686 411.976 369.526 411.703 369.419C411.429 369.312 411.137 369.26 410.843 369.265C410.548 369.27 410.258 369.333 409.989 369.45C409.719 369.567 409.476 369.736 409.272 369.946Z" fill="url(#paint2_radial_190_22)"/>
<path style="mix-blend-mode:screen" opacity="0.2" d="M393.259 360.064C390.961 362.424 389.421 365.407 388.833 368.634C388.246 371.861 388.637 375.189 389.958 378.195C391.279 381.202 393.471 383.753 396.255 385.526C399.04 387.299 402.292 388.214 405.602 388.156C408.911 388.097 412.129 387.068 414.848 385.198C417.566 383.328 419.665 380.701 420.877 377.649C422.089 374.598 422.36 371.258 421.657 368.054C420.954 364.85 419.307 361.924 416.926 359.646C415.344 358.133 413.478 356.944 411.432 356.146C409.387 355.348 407.203 354.957 405.005 354.996C402.807 355.035 400.638 355.503 398.623 356.372C396.608 357.242 394.785 358.496 393.259 360.064Z" fill="url(#paint3_radial_190_22)"/>
<path style="mix-blend-mode:screen" opacity="0.15" d="M166.014 343.065C159.885 349.357 155.777 357.309 154.21 365.915C152.642 374.521 153.686 383.394 157.208 391.413C160.73 399.431 166.574 406.235 173.999 410.963C181.424 415.691 190.097 418.131 198.922 417.976C207.747 417.82 216.327 415.075 223.578 410.088C230.828 405.101 236.423 398.096 239.655 389.959C242.887 381.821 243.611 372.917 241.736 364.372C239.86 355.826 235.469 348.024 229.118 341.951C224.901 337.919 219.923 334.748 214.47 332.622C209.016 330.495 203.193 329.454 197.333 329.557C191.473 329.66 185.691 330.906 180.317 333.224C174.944 335.542 170.083 338.886 166.014 343.065Z" fill="url(#paint4_radial_190_22)"/>
<path style="mix-blend-mode:screen" opacity="0.5" d="M182.069 358.418C179.004 361.564 176.949 365.541 176.164 369.844C175.379 374.148 175.901 378.585 177.661 382.595C179.422 386.606 182.344 390.008 186.057 392.373C189.77 394.738 194.107 395.959 198.52 395.881C202.933 395.804 207.224 394.432 210.85 391.938C214.476 389.444 217.274 385.941 218.891 381.872C220.507 377.802 220.869 373.349 219.931 369.076C218.993 364.803 216.797 360.901 213.621 357.864C211.513 355.848 209.024 354.262 206.298 353.199C203.571 352.135 200.659 351.614 197.729 351.666C194.799 351.717 191.908 352.34 189.221 353.498C186.534 354.657 184.104 356.329 182.069 358.418Z" fill="url(#paint5_radial_190_22)"/>
<path style="mix-blend-mode:screen" d="M184.743 360.979C182.191 363.601 180.48 366.914 179.827 370.499C179.175 374.084 179.61 377.781 181.078 381.121C182.546 384.461 184.98 387.295 188.073 389.265C191.167 391.234 194.78 392.251 198.457 392.186C202.133 392.121 205.707 390.977 208.728 388.899C211.748 386.822 214.079 383.903 215.426 380.513C216.772 377.123 217.074 373.414 216.293 369.854C215.512 366.294 213.682 363.043 211.037 360.513C207.487 357.121 202.724 355.265 197.793 355.352C192.862 355.439 188.168 357.463 184.743 360.979Z" fill="url(#paint6_radial_190_22)"/>
<g style="mix-blend-mode:screen" opacity="0.03">
<path d="M198.125 373.771L200.045 394.988L198.125 373.771ZM198.125 373.771L196.205 352.56L198.125 373.771ZM198.125 373.771L176.71 375.674L198.125 373.771ZM198.125 373.771L219.534 371.874L198.125 373.771ZM198.125 373.771L188.272 456.987L198.125 373.771ZM198.125 373.771L207.972 290.556L198.125 373.771ZM198.125 373.771L114.129 364.01L198.125 373.771ZM198.125 373.771L282.11 383.533L198.125 373.771ZM198.125 373.771L140.464 435.822L198.125 373.771ZM198.125 373.771L255.78 311.72L198.125 373.771ZM198.125 373.771L135.49 316.648L198.125 373.771ZM198.125 373.771L260.754 430.894L198.125 373.771ZM198.125 373.771L195.208 395.453L198.125 373.771ZM198.125 373.771L201.036 352.09L198.125 373.771ZM198.125 373.771L176.236 370.882L198.125 373.771ZM198.125 373.771L220.009 376.661L198.125 373.771ZM198.125 373.771L220.747 419.706L198.125 373.771ZM198.125 373.771L175.497 327.837L198.125 373.771ZM198.125 373.771L151.762 396.19L198.125 373.771ZM198.125 373.771L244.482 351.353L198.125 373.771ZM198.125 373.771L202.255 379.044L198.125 373.771ZM198.125 373.771L193.995 368.504L198.125 373.771ZM198.125 373.771L192.803 377.863L198.125 373.771ZM198.125 373.771L203.447 369.68L198.125 373.771ZM198.125 373.771L210.551 418.812L198.125 373.771ZM198.125 373.771L185.693 328.73L198.125 373.771ZM198.125 373.771L152.664 386.083L198.125 373.771ZM198.125 373.771L243.585 361.459L198.125 373.771ZM198.125 373.771L195.203 378.903L198.125 373.771ZM198.125 373.771L201.042 368.64L198.125 373.771ZM198.125 373.771L192.945 370.882L198.125 373.771ZM198.125 373.771L203.304 376.661L198.125 373.771ZM198.125 373.771L189.781 408.742L198.125 373.771ZM198.125 373.771L206.469 338.8L198.125 373.771ZM198.125 373.771L162.828 365.504L198.125 373.771ZM198.125 373.771L233.422 382.044L198.125 373.771ZM198.125 373.771L197.08 376.055L198.125 373.771ZM198.125 373.771L199.164 371.493L198.125 373.771ZM198.125 373.771L195.82 372.737L198.125 373.771ZM198.125 373.771L200.424 374.806L198.125 373.771ZM198.125 373.771L198.927 376.875L198.125 373.771ZM198.125 373.771L197.323 370.667L198.125 373.771ZM198.125 373.771L194.992 374.566L198.125 373.771ZM198.125 373.771L201.258 372.977L198.125 373.771ZM198.125 373.771L189.343 391.241L198.125 373.771ZM198.125 373.771L206.907 356.302L198.125 373.771ZM198.125 373.771L180.492 365.07L198.125 373.771ZM198.125 373.771L215.757 382.472L198.125 373.771ZM198.125 373.771L187.666 427.424L198.125 373.771ZM198.125 373.771L208.584 320.123L198.125 373.771ZM198.125 373.771L143.972 363.409L198.125 373.771ZM198.125 373.771L252.272 384.134L198.125 373.771ZM198.125 373.771L186.431 391.063L198.125 373.771ZM198.125 373.771L209.818 356.479L198.125 373.771ZM198.125 373.771L180.666 362.186L198.125 373.771ZM198.125 373.771L215.578 385.357L198.125 373.771ZM198.125 373.771L237.778 441.686L198.125 373.771ZM198.125 373.771L158.466 305.857L198.125 373.771ZM198.125 373.771L129.573 413.059L198.125 373.771ZM198.125 373.771L266.672 334.484" stroke="white" stroke-width="1.41" stroke-miterlimit="10"/>
</g>
<path style="mix-blend-mode:screen" opacity="0.5" d="M386.798 348.453C382.201 353.171 379.12 359.134 377.944 365.588C376.768 372.041 377.55 378.695 380.191 384.709C382.832 390.722 387.214 395.824 392.782 399.37C398.349 402.917 404.853 404.747 411.471 404.631C418.089 404.515 424.524 402.457 429.961 398.718C435.399 394.978 439.595 389.725 442.019 383.623C444.444 377.521 444.987 370.844 443.581 364.435C442.175 358.027 438.883 352.176 434.12 347.622C427.733 341.515 419.16 338.173 410.285 338.329C401.411 338.484 392.963 342.126 386.798 348.453Z" fill="url(#paint7_radial_190_22)"/>
<path style="mix-blend-mode:screen" d="M179.147 371.331C178.604 371.89 178.24 372.596 178.102 373.359C177.964 374.123 178.057 374.91 178.37 375.621C178.682 376.333 179.201 376.936 179.86 377.355C180.519 377.775 181.288 377.991 182.071 377.977C182.854 377.963 183.616 377.72 184.259 377.277C184.902 376.835 185.399 376.214 185.686 375.492C185.973 374.77 186.038 373.98 185.872 373.222C185.706 372.464 185.317 371.771 184.754 371.232C184.38 370.873 183.937 370.591 183.453 370.402C182.968 370.213 182.451 370.12 181.93 370.129C181.409 370.138 180.895 370.249 180.418 370.455C179.94 370.662 179.509 370.959 179.147 371.331Z" fill="url(#paint8_radial_190_22)"/>
<path style="mix-blend-mode:screen" d="M260.843 372.648C260.838 372.653 260.835 372.661 260.835 372.669C260.835 372.676 260.838 372.684 260.843 372.689C260.846 372.693 260.849 372.695 260.853 372.697C260.856 372.699 260.86 372.7 260.865 372.7C260.869 372.7 260.873 372.699 260.876 372.697C260.88 372.695 260.883 372.693 260.886 372.689V372.653C260.88 372.647 260.873 372.643 260.866 372.642C260.858 372.641 260.85 372.643 260.843 372.648Z" fill="url(#paint9_radial_190_22)"/>
<path style="mix-blend-mode:screen" d="M203.763 370.536C203.148 371.168 202.736 371.966 202.579 372.83C202.422 373.694 202.527 374.584 202.881 375.389C203.234 376.193 203.821 376.876 204.567 377.35C205.312 377.824 206.182 378.069 207.068 378.053C207.954 378.037 208.815 377.761 209.542 377.26C210.269 376.759 210.831 376.055 211.154 375.238C211.478 374.422 211.55 373.528 211.361 372.67C211.172 371.813 210.731 371.03 210.093 370.421C209.238 369.606 208.091 369.159 206.904 369.181C205.717 369.202 204.588 369.69 203.763 370.536Z" fill="url(#paint10_radial_190_22)"/>
<path style="mix-blend-mode:screen" d="M234.065 370.652C233.577 371.152 233.249 371.784 233.123 372.468C232.997 373.153 233.079 373.859 233.359 374.497C233.638 375.136 234.102 375.677 234.693 376.054C235.283 376.431 235.973 376.626 236.675 376.614C237.377 376.603 238.06 376.385 238.637 375.989C239.215 375.592 239.66 375.035 239.918 374.388C240.175 373.741 240.233 373.032 240.084 372.352C239.935 371.672 239.586 371.051 239.081 370.568C238.404 369.922 237.496 369.568 236.556 369.584C235.616 369.599 234.72 369.983 234.065 370.652Z" fill="url(#paint11_radial_190_22)"/>
<path style="mix-blend-mode:screen" d="M174.026 368.305C172.871 369.491 172.097 370.989 171.802 372.61C171.507 374.231 171.703 375.903 172.367 377.413C173.03 378.924 174.131 380.206 175.53 381.097C176.928 381.987 178.562 382.447 180.225 382.418C181.887 382.389 183.504 381.872 184.87 380.932C186.236 379.993 187.29 378.673 187.899 377.14C188.508 375.607 188.645 373.93 188.291 372.32C187.938 370.71 187.111 369.24 185.915 368.096C184.309 366.563 182.156 365.724 179.927 365.763C177.697 365.802 175.575 366.717 174.026 368.305Z" fill="url(#paint12_radial_190_22)"/>
</g>
<path style="mix-blend-mode:overlay" d="M139.259 362.312C139.259 385.873 207.509 404.975 291.708 404.975C375.906 404.975 444.15 385.873 444.15 362.312C444.15 338.75 375.899 319.654 291.708 319.654C207.516 319.654 139.259 338.75 139.259 362.312Z" fill="url(#paint13_radial_190_22)"/>
</g>
<defs>
<filter id="filter0_d_190_22" x="5.67505" y="23.5639" width="540.917" height="449.429" filterUnits="userSpaceOnUse" color-interpolation-filters="sRGB">
<feFlood flood-opacity="0" result="BackgroundImageFix"/>
<feColorMatrix in="SourceAlpha" type="matrix" values="0 0 0 0 0 0 0 0 0 0 0 0 0 0 0 0 0 0 127 0" result="hardAlpha"/>
<feOffset dy="4"/>
<feGaussianBlur stdDeviation="2"/>
<feComposite in2="hardAlpha" operator="out"/>
<feColorMatrix type="matrix" values="0 0 0 0 0 0 0 0 0 0 0 0 0 0 0 0 0 0 0.25 0"/>
<feBlend mode="normal" in2="BackgroundImageFix" result="effect1_dropShadow_190_22"/>
<feBlend mode="normal" in="SourceGraphic" in2="effect1_dropShadow_190_22" result="shape"/>
</filter>
<radialGradient id="paint0_radial_190_22" cx="0" cy="0" r="1" gradientUnits="userSpaceOnUse" gradientTransform="translate(171.433 371.306) rotate(43.5158) scale(66.4597 66.4306)">
<stop offset="0.1"/>
<stop offset="0.14" stop-color="#161309"/>
<stop offset="0.2" stop-color="#2C2612"/>
<stop offset="0.27" stop-color="#3D3419"/>
<stop offset="0.35" stop-color="#483F1D"/>
<stop offset="0.47" stop-color="#4F4420"/>
<stop offset="0.8" stop-color="#514621"/>
<stop offset="1"/>
</radialGradient>
<radialGradient id="paint1_radial_190_22" cx="0" cy="0" r="1" gradientUnits="userSpaceOnUse" gradientTransform="translate(243.293 369.795) rotate(43.5159) scale(2.21516 2.21419)">
<stop stop-color="#CFE098"/>
<stop offset="0.06" stop-color="#ACBA7E"/>
<stop offset="0.14" stop-color="#848F61"/>
<stop offset="0.22" stop-color="#606847"/>
<stop offset="0.31" stop-color="#424831"/>
<stop offset="0.4" stop-color="#2A2E1F"/>
<stop offset="0.5" stop-color="#171911"/>
<stop offset="0.62" stop-color="#0A0B07"/>
<stop offset="0.76" stop-color="#020302"/>
<stop offset="1"/>
</radialGradient>
<radialGradient id="paint2_radial_190_22" cx="0" cy="0" r="1" gradientUnits="userSpaceOnUse" gradientTransform="translate(7760.2 695.577) scale(18.8751 18.7008)">
<stop stop-color="#CFE098"/>
<stop offset="0.06" stop-color="#ACBA7E"/>
<stop offset="0.14" stop-color="#848F61"/>
<stop offset="0.22" stop-color="#606847"/>
<stop offset="0.31" stop-color="#424831"/>
<stop offset="0.4" stop-color="#2A2E1F"/>
<stop offset="0.5" stop-color="#171911"/>
<stop offset="0.62" stop-color="#0A0B07"/>
<stop offset="0.76" stop-color="#020302"/>
<stop offset="1"/>
</radialGradient>
<radialGradient id="paint3_radial_190_22" cx="0" cy="0" r="1" gradientUnits="userSpaceOnUse" gradientTransform="translate(405.838 367.828) rotate(43.5157) scale(16.6162 16.609)">
<stop offset="0.05"/>
<stop offset="0.08" stop-color="#050804"/>
<stop offset="0.29" stop-color="#213219"/>
<stop offset="0.48" stop-color="#355128"/>
<stop offset="0.64" stop-color="#426431"/>
<stop offset="0.75" stop-color="#476B33"/>
<stop offset="0.82" stop-color="#696B1A"/>
<stop offset="0.86" stop-color="#766B11"/>
<stop offset="0.89" stop-color="#726810"/>
<stop offset="0.91" stop-color="#685E0F"/>
<stop offset="0.94" stop-color="#554D0C"/>
<stop offset="0.96" stop-color="#3C3609"/>
<stop offset="0.98" stop-color="#1B1904"/>
<stop offset="1"/>
</radialGradient>
<radialGradient id="paint4_radial_190_22" cx="0" cy="0" r="1" gradientUnits="userSpaceOnUse" gradientTransform="translate(199.24 370.72) rotate(43.5158) scale(44.3082 44.2888)">
<stop stop-color="#1F0000"/>
<stop offset="0.73" stop-color="#81452F"/>
<stop offset="1" stop-color="#1F0000"/>
</radialGradient>
<radialGradient id="paint5_radial_190_22" cx="0" cy="0" r="1" gradientUnits="userSpaceOnUse" gradientTransform="translate(199.24 370.72) rotate(43.5158) scale(22.1567 22.147)">
<stop offset="0.15" stop-color="white"/>
<stop offset="0.21" stop-color="#DED2D3"/>
<stop offset="0.29" stop-color="#B79B9D"/>
<stop offset="0.36" stop-color="#9A7377"/>
<stop offset="0.42" stop-color="#885B5F"/>
<stop offset="0.45" stop-color="#825256"/>
<stop offset="0.53" stop-color="#683C3F"/>
<stop offset="0.67" stop-color="#401C1D"/>
<stop offset="0.78" stop-color="#280708"/>
<stop offset="0.85" stop-color="#1F0000"/>
<stop offset="0.86" stop-color="#230202"/>
<stop offset="0.87" stop-color="#44150E"/>
<stop offset="0.88" stop-color="#612619"/>
<stop offset="0.89" stop-color="#873B27"/>
<stop offset="0.9" stop-color="#BB593A"/>
<stop offset="0.91" stop-color="#99462D"/>
<stop offset="0.92" stop-color="#74301F"/>
<stop offset="0.94" stop-color="#551F14"/>
<stop offset="0.95" stop-color="#3D110B"/>
<stop offset="0.96" stop-color="#2C0805"/>
<stop offset="0.98" stop-color="#220201"/>
<stop offset="1" stop-color="#1F0000"/>
</radialGradient>
<radialGradient id="paint6_radial_190_22" cx="0" cy="0" r="1" gradientUnits="userSpaceOnUse" gradientTransform="translate(199.24 370.719) rotate(43.5158) scale(18.4596 18.4515)">
<stop offset="0.15" stop-color="white"/>
<stop offset="0.28" stop-color="#C2C2C2"/>
<stop offset="0.43" stop-color="#888888"/>
<stop offset="0.56" stop-color="#575757"/>
<stop offset="0.69" stop-color="#313131"/>
<stop offset="0.81" stop-color="#161616"/>
<stop offset="0.92" stop-color="#060606"/>
<stop offset="1"/>
</radialGradient>
<radialGradient id="paint7_radial_190_22" cx="0" cy="0" r="1" gradientUnits="userSpaceOnUse" gradientTransform="translate(411.401 367.711) rotate(43.5157) scale(33.2324 33.2179)">
<stop offset="0.64"/>
<stop offset="0.72" stop-color="#010201"/>
<stop offset="0.75" stop-color="#050903"/>
<stop offset="0.76" stop-color="#0B1408"/>
<stop offset="0.78" stop-color="#14250E"/>
<stop offset="0.79" stop-color="#1F3B17"/>
<stop offset="0.8" stop-color="#25461B"/>
<stop offset="0.82" stop-color="#2B280F"/>
<stop offset="0.83" stop-color="#2F1207"/>
<stop offset="0.85" stop-color="#310502"/>
<stop offset="0.86" stop-color="#320000"/>
<stop offset="0.87" stop-color="#250000"/>
<stop offset="0.88" stop-color="#140000"/>
<stop offset="0.9" stop-color="#090000"/>
<stop offset="0.93" stop-color="#020000"/>
<stop offset="1"/>
</radialGradient>
<radialGradient id="paint8_radial_190_22" cx="0" cy="0" r="1" gradientUnits="userSpaceOnUse" gradientTransform="translate(183.161 371.059) rotate(43.5157) scale(3.9328 3.93108)">
<stop offset="0.1" stop-color="#001A1E"/>
<stop offset="0.35" stop-color="#000D0F"/>
<stop offset="0.67" stop-color="#000304"/>
<stop offset="1"/>
</radialGradient>
<radialGradient id="paint9_radial_190_22" cx="0" cy="0" r="1" gradientUnits="userSpaceOnUse" gradientTransform="translate(261.801 369.407) rotate(43.5869) scale(0.0261314)">
<stop offset="0.1"/>
<stop offset="0.16" stop-color="#0F0F0F"/>
<stop offset="0.32" stop-color="#313130"/>
<stop offset="0.48" stop-color="#4C4B4A"/>
<stop offset="0.65" stop-color="#5F5E5C"/>
<stop offset="0.82" stop-color="#6A6967"/>
<stop offset="1" stop-color="#6E6D6B"/>
</radialGradient>
<radialGradient id="paint10_radial_190_22" cx="0" cy="0" r="1" gradientUnits="userSpaceOnUse" gradientTransform="translate(208.075 370.533) rotate(43.5158) scale(4.44601 4.44406)">
<stop offset="0.1"/>
<stop offset="0.33" stop-color="#000300"/>
<stop offset="1" stop-color="#000700"/>
</radialGradient>
<radialGradient id="paint11_radial_190_22" cx="0" cy="0" r="1" gradientUnits="userSpaceOnUse" gradientTransform="translate(237.626 369.914) rotate(43.5156) scale(3.52435 3.5228)">
<stop offset="0.1" stop-color="#6E6D6B"/>
<stop offset="0.16" stop-color="#5F5E5C"/>
<stop offset="0.32" stop-color="#3D3C3B"/>
<stop offset="0.48" stop-color="#222221"/>
<stop offset="0.65" stop-color="#0F0F0F"/>
<stop offset="0.82" stop-color="#040404"/>
<stop offset="1"/>
</radialGradient>
<radialGradient id="paint12_radial_190_22" cx="0" cy="0" r="1" gradientUnits="userSpaceOnUse" gradientTransform="translate(22638.2 6716.65) scale(268.031 265.523)">
<stop offset="0.1"/>
<stop offset="0.16" stop-color="#0F0F0F"/>
<stop offset="0.32" stop-color="#313130"/>
<stop offset="0.48" stop-color="#4C4B4A"/>
<stop offset="0.65" stop-color="#5F5E5C"/>
<stop offset="0.82" stop-color="#6A6967"/>
<stop offset="1" stop-color="#6E6D6B"/>
</radialGradient>
<radialGradient id="paint13_radial_190_22" cx="0" cy="0" r="1" gradientUnits="userSpaceOnUse" gradientTransform="translate(291.581 361.048) rotate(180) scale(146.536 40.8555)">
<stop stop-color="white"/>
<stop offset="0.14" stop-color="#E4E4E4" stop-opacity="0.79"/>
<stop offset="0.31" stop-color="#C6C6C6" stop-opacity="0.55"/>
<stop offset="0.48" stop-color="#ADADAD" stop-opacity="0.35"/>
<stop offset="0.64" stop-color="#9A9A9A" stop-opacity="0.2"/>
<stop offset="0.78" stop-color="#8C8C8C" stop-opacity="0.09"/>
<stop offset="0.91" stop-color="#838383" stop-opacity="0.02"/>
<stop offset="1" stop-color="#808080" stop-opacity="0"/>
</radialGradient>
<clipPath id="clip0_190_22">
<rect width="341.052" height="166.514" fill="white" transform="translate(103.295 290.514)"/>
</clipPath>
</defs>
</svg>
