<svg width="191" height="189" viewBox="0 0 191 189" fill="none" xmlns="http://www.w3.org/2000/svg">
<g style="mix-blend-mode:overlay">
<g style="mix-blend-mode:overlay">
<path d="M183.921 94.2399C183.921 76.8448 178.735 59.8404 169.019 45.3769C159.304 30.9134 145.494 19.6405 129.337 12.9837C113.18 6.32692 95.4019 4.5852 78.2499 7.97881C61.0979 11.3724 45.3427 19.7489 32.9768 32.0491C20.6109 44.3493 12.1896 60.0207 8.77788 77.0815C5.36613 94.1423 7.11717 111.826 13.8096 127.897C20.5019 143.968 31.8351 157.704 46.3759 167.369C60.9166 177.033 78.0119 182.191 95.5 182.191C118.95 182.189 141.439 172.922 158.021 156.429C174.603 139.935 183.919 117.565 183.921 94.2399Z" stroke="white" stroke-width="12.59" stroke-miterlimit="10" stroke-dasharray="4.58 9.17"/>
</g>
</g>
</svg>
