<svg width="125" height="125" viewBox="0 0 125 125" fill="none" xmlns="http://www.w3.org/2000/svg">
<g style="mix-blend-mode:overlay">
<g style="mix-blend-mode:overlay">
<path d="M112.93 87.0159C117.855 77.0954 119.713 65.945 118.267 54.9747C116.821 44.0043 112.138 33.7067 104.809 25.384C97.4795 17.0612 87.8338 11.0871 77.0912 8.21704C66.3487 5.34697 54.9918 5.70985 44.4566 9.25979C33.9214 12.8097 24.681 19.3873 17.904 28.1608C11.1269 36.9343 7.11744 47.5096 6.38264 58.5496C5.64784 69.5897 8.22069 80.5985 13.7758 90.1841C19.331 99.7696 27.6189 107.502 37.5917 112.402C50.9671 118.97 66.4174 119.985 80.5452 115.225C94.6731 110.464 106.322 100.318 112.93 87.0159Z" stroke="#5F5F7E" stroke-width="11.98" stroke-miterlimit="10" stroke-dasharray="135.68 21.81"/>
</g>
</g>
</svg>
